# Blender 4.1.1
# www.blender.org
mtllib klocekszescioscienny.mtl
o Cube
v 1.000000 1.000000 -1.000000
v 1.000000 -1.000000 -1.000000
v 1.000000 1.000000 1.000000
v 1.000000 -1.000000 1.000000
v -1.000000 1.000000 -1.000000
v -1.000000 -1.000000 -1.000000
v -1.000000 1.000000 1.000000
v -1.000000 -1.000000 1.000000
vn -0.0000 1.0000 -0.0000
vn -0.0000 -0.0000 1.0000
vn -1.0000 -0.0000 -0.0000
vn -0.0000 -1.0000 -0.0000
vn 1.0000 -0.0000 -0.0000
vn -0.0000 -0.0000 -1.0000
vt 0.500966 0.666837
vt 0.502897 1.000510
vt 0.253730 1.001962
vt 0.251799 0.668288
vt 0.249868 0.334615
vt 0.002633 0.669740
vt 0.000702 0.336066
vt 0.997368 0.330260
vt 0.999298 0.663934
vt 0.750132 0.665385
vt 0.748201 0.331712
vt 0.497103 -0.000510
vt 0.499034 0.333163
vt 0.247937 0.000941
s 0
usemtl Material
f 1/1/1 5/2/1 7/3/1 3/4/1
f 4/5/2 3/4/2 7/6/2 8/7/2
f 8/8/3 7/9/3 5/10/3 6/11/3
f 6/12/4 2/13/4 4/5/4 8/14/4
f 2/13/5 1/1/5 3/4/5 4/5/5
f 6/11/6 5/10/6 1/1/6 2/13/6
